<svg xmlns="http://www.w3.org/2000/svg" xmlns:xlink="http://www.w3.org/1999/xlink" id="Layer_1" x="0px" y="0px" width="1000px" height="1000px" viewBox="0 0 1000 1000" xml:space="preserve">
<g>
	<g>
		<path fill="#010101" d="M400.281,724.665c1.76,2.307,2.644,5.17,2.644,8.588c0,4.716-1.816,8.356-5.442,10.921    c-3.626,2.565-8.913,3.848-15.856,3.848H354.58v-54.408h25.495c6.422,0,11.373,1.258,14.844,3.771    c3.47,2.514,5.208,5.972,5.208,10.377c0,2.695-0.622,5.078-1.865,7.151c-1.244,2.071-2.953,3.68-5.13,4.818    C396.136,720.714,398.521,722.361,400.281,724.665z M364.685,701.542v15.001h14.301c3.523,0,6.23-0.634,8.122-1.904    c1.891-1.269,2.836-3.12,2.836-5.557c0-2.487-0.946-4.364-2.836-5.635c-1.892-1.271-4.599-1.905-8.122-1.905H364.685z     M392.742,732.244c0-5.234-3.912-7.853-11.737-7.853h-16.321v15.702h16.321C388.83,740.094,392.742,737.479,392.742,732.244z"></path>
		<path fill="#010101" d="M424.143,745.185c-4.458-2.409-7.954-5.751-10.493-10.026c-2.539-4.274-3.808-9.055-3.808-14.341    c0-5.285,1.269-10.063,3.808-14.339s6.035-7.617,10.493-10.026c4.456-2.411,9.456-3.614,15.001-3.614    c5.543,0,10.543,1.203,15.001,3.614c4.454,2.409,7.952,5.738,10.491,9.986c2.539,4.251,3.81,9.044,3.81,14.379    c0,5.337-1.271,10.132-3.81,14.379c-2.539,4.251-6.037,7.579-10.491,9.988c-4.458,2.409-9.458,3.613-15.001,3.613    C433.598,748.798,428.599,747.594,424.143,745.185z M448.937,737.49c2.902-1.634,5.181-3.913,6.839-6.841    c1.658-2.927,2.487-6.203,2.487-9.832c0-3.626-0.83-6.903-2.487-9.832c-1.658-2.926-3.937-5.207-6.839-6.84    c-2.903-1.631-6.167-2.447-9.793-2.447c-3.628,0-6.892,0.816-9.793,2.447c-2.904,1.633-5.183,3.914-6.841,6.84    c-1.658,2.929-2.487,6.206-2.487,9.832c0,3.629,0.83,6.905,2.487,9.832c1.658,2.928,3.937,5.207,6.841,6.841    c2.901,1.633,6.165,2.446,9.793,2.446C442.77,739.937,446.034,739.123,448.937,737.49z"></path>
		<path fill="#010101" d="M489.584,745.185c-4.458-2.409-7.954-5.751-10.493-10.026c-2.539-4.274-3.808-9.055-3.808-14.341    c0-5.285,1.269-10.063,3.808-14.339c2.539-4.275,6.035-7.617,10.493-10.026c4.456-2.411,9.456-3.614,15.001-3.614    c5.544,0,10.543,1.203,15.001,3.614c4.454,2.409,7.953,5.738,10.491,9.986c2.539,4.251,3.809,9.044,3.809,14.379    c0,5.337-1.27,10.132-3.809,14.379c-2.538,4.251-6.037,7.579-10.491,9.988c-4.458,2.409-9.457,3.613-15.001,3.613    C499.041,748.798,494.041,747.594,489.584,745.185z M514.379,737.49c2.901-1.634,5.182-3.913,6.839-6.841    c1.657-2.927,2.487-6.203,2.487-9.832c0-3.626-0.83-6.903-2.487-9.832c-1.657-2.926-3.938-5.207-6.839-6.84    c-2.903-1.631-6.166-2.447-9.793-2.447c-3.628,0-6.892,0.816-9.793,2.447c-2.903,1.633-5.183,3.914-6.84,6.84    c-1.658,2.929-2.487,6.206-2.487,9.832c0,3.629,0.83,6.905,2.487,9.832c1.658,2.928,3.937,5.207,6.84,6.841    c2.901,1.633,6.166,2.446,9.793,2.446C508.213,739.937,511.476,739.123,514.379,737.49z"></path>
		<path fill="#010101" d="M563.344,725.249l-8.628,8.86v13.912h-10.104v-54.408h10.104v27.904l26.893-27.904h11.349l-22.851,24.33    l24.249,30.078h-11.813L563.344,725.249z"></path>
		<path fill="#010101" d="M604.808,747.01c-3.911-1.189-7.008-2.771-9.287-4.739l3.498-7.851c2.227,1.761,4.96,3.199,8.198,4.313    c3.24,1.113,6.49,1.671,9.756,1.671c4.042,0,7.06-0.646,9.055-1.943c1.994-1.293,2.991-3.005,2.991-5.129    c0-1.556-0.557-2.837-1.671-3.849c-1.113-1.009-2.525-1.799-4.234-2.368c-1.711-0.571-4.042-1.218-6.995-1.945    c-4.147-0.983-7.501-1.968-10.066-2.952s-4.767-2.527-6.605-4.626c-1.841-2.098-2.761-4.935-2.761-8.51    c0-3.004,0.816-5.74,2.45-8.2c1.631-2.46,4.091-4.416,7.384-5.868c3.289-1.449,7.317-2.176,12.084-2.176    c3.315,0,6.581,0.416,9.793,1.243c3.213,0.831,5.986,2.021,8.318,3.575l-3.188,7.85c-2.383-1.398-4.871-2.461-7.461-3.186    c-2.592-0.726-5.104-1.09-7.539-1.09c-3.991,0-6.957,0.676-8.9,2.022c-1.942,1.347-2.915,3.137-2.915,5.362    c0,1.555,0.558,2.824,1.671,3.809c1.114,0.985,2.528,1.761,4.236,2.332c1.71,0.57,4.043,1.219,6.995,1.943    c4.043,0.933,7.357,1.903,9.95,2.914c2.589,1.01,4.806,2.553,6.644,4.625c1.84,2.072,2.761,4.871,2.761,8.393    c0,3.007-0.816,5.727-2.449,8.162c-1.631,2.437-4.107,4.379-7.422,5.83c-3.317,1.449-7.357,2.175-12.125,2.175    C612.775,748.798,608.721,748.202,604.808,747.01z"></path>
	</g>
	<linearGradient id="SVGID_1_" gradientUnits="userSpaceOnUse" x1="-44.8887" y1="-166.4937" x2="924.7308" y2="1133.2141">
		<stop offset="0" style="stop-color:#75993E"></stop>
		<stop offset="1" style="stop-color:#0A2D1C"></stop>
	</linearGradient>
	<polygon fill="url(#SVGID_1_)" points="347.106,486.993 509.9,486.993 570.591,413.556 347.106,413.556 347.106,324.969    518.938,324.969 581.551,249.2 253.272,249.2 253.272,657.176 514.273,657.176 577.578,580.825 347.106,580.59  "></polygon>
	<linearGradient id="SVGID_2_" gradientUnits="userSpaceOnUse" x1="83.355" y1="559.2197" x2="916.6455" y2="559.2197">
		<stop offset="0" style="stop-color:#75993E"></stop>
		<stop offset="1" style="stop-color:#0A2D1C"></stop>
	</linearGradient>
	<path fill="url(#SVGID_2_)" d="M895.395,184.414l-50.443,39.805v225.453c-0.012,0.881-1.795,89.172-46.195,184.542   c-57.737,124.021-158.252,205.271-298.754,241.522c-0.235-0.062-0.466-0.128-0.7-0.188c-0.099,41.124,0.782,73.541,0.782,73.541   h2.393l2.348-0.554C715.969,898.576,816.851,765.843,864.3,663.291c51.147-110.547,52.319-209.087,52.345-213.286V170.328   l-3.375-0.977L895.395,184.414z"></path>
	<linearGradient id="SVGID_3_" gradientUnits="userSpaceOnUse" x1="83.3555" y1="137.5479" x2="916.6403" y2="137.5479">
		<stop offset="0" style="stop-color:#0A2D1C"></stop>
		<stop offset="1" style="stop-color:#75993E"></stop>
	</linearGradient>
	<polygon fill="url(#SVGID_3_)" points="500.002,124.412 844.951,224.219 895.395,184.414 913.27,169.352 503.792,50.877    495.553,51.063 87.745,169.058 155.049,224.219  "></polygon>
	<linearGradient id="SVGID_4_" gradientUnits="userSpaceOnUse" x1="291.7202" y1="949.0879" x2="291.7202" y2="-610.9717">
		<stop offset="0" style="stop-color:#0A2D1C"></stop>
		<stop offset="1" style="stop-color:#75993E"></stop>
	</linearGradient>
	<path fill="url(#SVGID_4_)" d="M499.302,875.547c-140.136-36.341-240.417-117.521-298.056-241.334   c-44.032-94.577-46.13-180.757-46.197-184.208V224.219l-67.304-55.161l-4.389,1.271v279.9   c0.025,4.134,1.206,102.518,52.345,213.063c47.404,102.465,148.182,235.108,359.039,285.132c1.255,0.303,3.199,0.665,5.345,0.665   C500.084,949.088,499.203,916.671,499.302,875.547z"></path>
	<g>
		<polygon fill="#010101" points="610.191,580.825 545.713,657.176 705.721,657.176 769.041,580.825   "></polygon>
	</g>
	<polygon fill="#010101" points="615.021,249.2 553.371,324.86 673.842,324.86 483.946,555.754 596.499,555.754 789.611,310.396    789.611,249.2  "></polygon>
	<path fill="#010101" d="M502.807,10.3l-6.101,0.139L46.467,140.711v303.747c0.031,4.521,1.377,112.013,57.341,232.984   c51.824,112.022,162.065,257.057,392.89,311.818c0.828,0.198,2.098,0.439,3.396,0.439h1.403l1.37-0.329   c231.104-54.677,341.451-199.808,393.324-311.929c55.983-121,57.314-228.572,57.342-233.171v-303.56L502.807,10.3z    M895.395,444.048c-0.016,0.998-1.676,100.947-52.511,210.15c-66.177,142.148-181.526,234.951-342.882,275.855   c-161.355-40.904-276.708-133.707-342.881-275.855c-50.779-109.071-52.5-209.044-52.511-209.927V184.414L500.002,70.012   l395.393,114.401V444.048z"></path>
</g>
</svg>